<?xml version="1.0" standalone="no"?>
<!DOCTYPE svg PUBLIC "-//W3C//DTD SVG 20010904//EN"
 "http://www.w3.org/TR/2001/REC-SVG-20010904/DTD/svg10.dtd">
<svg version="1.0" xmlns="http://www.w3.org/2000/svg"
 width="400.000000pt" height="400.000000pt" viewBox="0 0 400.000000 400.000000"
 preserveAspectRatio="xMidYMid meet">

<g transform="translate(0.000000,400.000000) scale(0.100000,-0.100000)"
fill="#000000" stroke="none">
<path d="M431 3169 c-99 -19 -189 -87 -233 -177 l-23 -47 0 -705 0 -705 24
-49 c33 -66 91 -122 160 -155 l56 -26 1585 0 1585 0 59 29 c72 35 125 86 157
152 l24 49 0 705 0 705 -23 47 c-46 93 -133 157 -241 178 -67 12 -3066 12
-3130 -1z m3171 -81 c53 -25 106 -74 131 -122 22 -41 22 -43 25 -705 3 -763 5
-737 -77 -814 -89 -83 40 -77 -1681 -77 -1721 0 -1592 -6 -1681 77 -81 76 -79
52 -79 790 0 441 4 658 11 688 21 81 106 157 199 176 19 4 728 6 1575 5 1443
-1 1542 -2 1577 -18z"/>
<path d="M2380 2355 l0 -655 575 0 575 0 0 655 0 655 -575 0 -575 0 0 -655z
m731 516 c70 -69 69 -74 -40 -225 -58 -80 -90 -151 -74 -167 15 -15 189 76
229 120 29 31 36 33 70 28 55 -9 88 -37 92 -77 4 -39 -9 -50 -58 -50 -41 0
-68 -13 -144 -69 l-57 -42 35 -39 c47 -52 52 -79 35 -183 l-15 -88 64 -46 c36
-25 98 -78 138 -117 62 -59 74 -77 74 -103 0 -44 -31 -65 -73 -50 -75 26 -175
97 -137 97 20 0 9 26 -31 73 -22 26 -46 47 -53 47 -7 0 -23 -22 -36 -49 -27
-60 -71 -104 -123 -126 -38 -16 -38 -16 -100 21 -105 62 -114 88 -28 78 52 -6
65 -3 96 16 41 25 95 94 95 120 0 9 -34 43 -74 76 -41 32 -75 62 -75 67 -2 17
79 5 125 -18 27 -14 50 -25 52 -25 1 0 2 34 2 75 0 48 -6 86 -16 109 -15 31
-20 33 -41 25 -43 -16 -65 -10 -105 31 l-40 40 21 33 c28 46 87 381 72 414
-15 32 -14 32 12 43 41 17 60 10 108 -39z m-241 -116 c63 -33 67 -88 10 -148
-23 -23 -59 -76 -82 -117 -22 -41 -51 -89 -64 -107 l-24 -32 31 -3 c68 -7 54
-78 -15 -78 -17 0 -58 -10 -92 -22 -81 -29 -94 -52 -94 -166 0 -85 13 -131 36
-139 7 -2 42 25 79 61 l68 64 -6 46 c-4 25 -5 46 -3 46 9 0 96 -121 96 -133 0
-8 -12 -24 -26 -38 -14 -13 -43 -58 -64 -99 -46 -92 -69 -106 -126 -81 -92 42
-140 144 -132 283 5 90 27 130 74 138 35 6 43 34 15 50 -32 17 -25 42 25 90
64 63 127 147 119 160 -3 5 -20 10 -36 10 -52 0 -149 53 -149 81 0 4 30 17 68
30 84 27 137 54 182 90 39 33 67 36 110 14z"/>
<path d="M1734 2946 c-3 -8 -1 -23 5 -35 6 -11 11 -33 11 -50 0 -43 -46 -218
-64 -246 -14 -21 -108 -65 -141 -65 -17 0 -45 -27 -45 -45 0 -22 47 -71 85
-89 19 -9 35 -21 35 -27 0 -5 -16 -41 -35 -79 -19 -38 -35 -80 -35 -92 0 -40
55 -124 91 -138 27 -12 39 -11 79 3 26 9 51 17 55 17 10 0 -4 -192 -15 -203
-4 -5 -18 -4 -29 3 -12 6 -36 10 -54 8 -28 -3 -29 -5 -12 -12 37 -16 77 -61
100 -113 32 -72 78 -93 113 -53 15 18 17 41 14 188 -4 187 8 294 36 331 10 14
46 40 80 59 41 22 62 40 62 52 0 24 -101 110 -128 110 -24 0 -70 -55 -81 -97
-7 -30 -51 -58 -109 -69 -39 -8 -42 8 -12 65 23 46 65 83 134 118 100 50 188
107 204 131 14 22 14 26 -3 58 -11 20 -34 42 -60 54 -49 24 -69 19 -129 -29
-62 -50 -88 -39 -41 17 56 66 65 132 27 190 -29 45 -125 71 -138 38z"/>
<path d="M1010 2901 c0 -11 16 -38 35 -61 38 -46 38 -48 -14 -114 -28 -35 -38
-56 -27 -56 3 0 31 16 63 35 32 19 69 35 83 35 34 0 47 10 55 42 8 33 -18 91
-53 118 -18 15 -40 20 -83 20 -51 0 -59 -2 -59 -19z"/>
<path d="M589 2870 c-24 -19 -24 -19 -3 -20 38 0 46 -23 43 -114 -5 -108 -19
-128 -128 -182 -46 -23 -94 -53 -108 -66 l-25 -25 23 -22 c19 -17 35 -21 96
-21 47 0 73 -4 73 -11 0 -12 -75 -139 -140 -234 -22 -33 -40 -68 -40 -77 0
-19 56 -88 72 -88 6 0 31 15 57 33 73 52 71 52 71 13 0 -25 -4 -34 -13 -30
-17 6 -67 -12 -67 -24 0 -5 18 -21 40 -36 27 -17 40 -34 40 -49 0 -30 11 -44
42 -56 27 -10 64 -5 86 12 17 14 15 56 -8 139 -27 99 -26 121 11 163 36 41 49
44 49 12 0 -44 31 -129 56 -154 21 -21 32 -24 61 -20 71 12 79 39 32 122 -42
74 -37 101 23 134 25 14 50 22 55 18 4 -5 10 -97 12 -206 4 -227 5 -223 -84
-225 -67 -1 -71 -11 -8 -21 47 -7 75 -28 116 -89 21 -31 66 -35 93 -9 15 15
16 34 12 154 l-5 137 34 -15 c19 -8 49 -13 66 -11 27 2 37 12 65 58 50 84 74
157 79 240 4 63 1 80 -16 108 -43 67 -137 93 -201 55 -27 -15 -30 -15 -55 1
-14 9 -24 23 -22 29 5 17 73 54 144 77 60 21 73 33 73 71 0 23 -66 59 -109 59
-17 0 -51 -13 -77 -30 -42 -26 -141 -68 -276 -115 -74 -26 -58 -50 43 -66 35
-6 66 -13 69 -15 3 -3 -12 -21 -33 -41 -28 -25 -45 -33 -60 -29 -14 3 -40 -9
-84 -40 -65 -46 -87 -49 -78 -11 2 12 9 48 15 80 9 43 21 69 51 103 44 51 51
94 22 127 -14 15 -18 37 -18 100 0 81 0 81 -34 104 -43 29 -100 30 -132 3z
m441 -439 c0 -10 -16 -29 -37 -43 -98 -64 -93 -62 -93 -44 0 13 111 106 126
106 2 0 4 -8 4 -19z m216 -88 c-8 -53 -54 -155 -73 -161 -18 -5 -18 179 -1
196 7 7 27 12 46 12 l34 0 -6 -47z"/>
<path d="M1995 2190 c33 -65 32 -80 -4 -80 -34 0 -51 -18 -30 -31 8 -5 34 -9
58 -9 26 0 52 -6 62 -16 25 -23 56 -9 69 32 14 40 6 86 -18 108 -27 24 -88 46
-127 46 l-35 0 25 -50z"/>
<path d="M640 1556 c0 -58 4 -85 13 -88 21 -9 37 3 37 27 0 32 16 40 29 16 18
-32 41 -50 56 -45 21 8 19 31 -6 71 -20 31 -20 35 -5 52 21 23 21 51 -1 51 -9
0 -30 -12 -45 -27 l-28 -27 0 27 c0 22 -5 27 -25 27 -25 0 -25 -1 -25 -84z"/>
<path d="M837 1564 c-25 -71 -26 -79 -12 -93 15 -15 17 -14 29 2 16 21 52 22
72 2 16 -16 44 -10 44 9 0 7 -11 43 -23 82 -22 63 -26 69 -53 72 -29 3 -31 0
-57 -74z m62 -38 c-14 -16 -22 1 -14 31 l8 28 7 -25 c4 -14 3 -29 -1 -34z"/>
<path d="M1010 1557 c0 -59 4 -86 13 -89 21 -9 37 3 37 27 0 32 16 40 29 16
18 -32 41 -50 56 -45 21 8 19 31 -6 71 -20 31 -20 35 -5 52 42 46 -2 71 -45
25 l-24 -26 -5 24 c-4 14 -14 24 -28 26 -21 3 -22 0 -22 -81z"/>
<path d="M1200 1556 c0 -84 7 -99 38 -89 8 3 12 30 12 89 0 83 0 84 -25 84
-25 0 -25 -1 -25 -84z"/>
<path d="M1307 1633 c-4 -3 -7 -41 -7 -84 0 -61 3 -78 16 -83 25 -10 34 2 35
47 l1 42 12 -37 c22 -72 46 -74 64 -8 l10 35 1 -31 c1 -33 23 -60 41 -49 5 3
10 43 10 91 l0 85 -32 -3 c-28 -3 -34 -8 -43 -40 -15 -53 -21 -54 -34 -3 -10
40 -14 45 -39 45 -16 0 -32 -3 -35 -7z"/>
<path d="M1561 1621 c-64 -64 -8 -175 79 -156 35 8 70 48 70 82 0 31 -25 79
-45 87 -33 12 -85 6 -104 -13z m84 -66 c0 -36 -3 -40 -25 -40 -27 0 -36 20
-26 61 5 19 12 25 29 22 18 -3 22 -9 22 -43z"/>
<path d="M1740 1620 c0 -15 6 -20 25 -20 24 0 25 -2 25 -64 0 -44 4 -65 13
-69 26 -10 36 8 39 68 3 57 4 60 31 63 20 3 27 8 25 20 -3 14 -18 18 -81 20
-72 3 -77 1 -77 -18z"/>
<path d="M1952 1617 c-15 -16 -22 -36 -22 -63 0 -47 20 -79 56 -88 34 -9 91
10 104 34 17 31 11 85 -11 114 -28 35 -95 37 -127 3z m90 -43 c14 -29 2 -57
-27 -62 -31 -7 -49 50 -23 76 19 19 37 14 50 -14z"/>
<path d="M2287 1633 c-10 -10 -8 -161 2 -167 19 -12 41 7 41 35 0 38 26 39 43
2 14 -34 26 -43 44 -36 16 6 17 55 1 71 -9 9 -9 15 0 24 17 17 15 44 -4 62
-16 16 -114 23 -127 9z m88 -53 c0 -8 -10 -16 -22 -18 -18 -3 -23 2 -23 18 0
16 5 21 23 18 12 -2 22 -10 22 -18z"/>
<path d="M2485 1559 c-22 -64 -25 -83 -15 -89 15 -9 40 -2 40 11 0 15 50 10
66 -6 16 -16 44 -10 44 9 0 7 -11 43 -23 82 -22 64 -26 69 -54 72 -30 3 -31 2
-58 -79z m68 -31 c-2 -5 -8 -8 -14 -8 -11 0 -12 33 -2 44 8 8 23 -25 16 -36z"/>
<path d="M2675 1615 c-27 -26 -34 -80 -15 -115 29 -54 168 -40 146 15 -6 17
-41 20 -51 5 -21 -35 -61 13 -45 54 11 29 31 33 50 11 7 -8 19 -15 27 -15 22
0 27 29 8 50 -27 29 -89 27 -120 -5z"/>
<path d="M2850 1556 c0 -84 7 -99 38 -89 8 3 12 30 12 89 0 83 0 84 -25 84
-25 0 -25 -1 -25 -84z"/>
<path d="M2960 1556 c0 -86 6 -101 34 -90 11 4 16 19 16 48 l0 41 30 -47 c17
-27 36 -48 43 -48 32 1 38 17 35 96 -3 73 -5 79 -25 82 -20 3 -22 -2 -25 -45
l-3 -48 -25 45 c-19 34 -32 46 -53 48 l-27 3 0 -85z"/>
<path d="M3197 1628 c-23 -18 -38 -65 -31 -96 13 -54 59 -81 108 -62 16 6 27
6 31 0 14 -23 25 -6 25 40 l0 50 -35 0 c-28 0 -35 -4 -35 -19 0 -11 6 -21 13
-24 8 -3 6 -7 -6 -12 -24 -10 -47 12 -47 45 0 37 25 58 51 42 10 -7 26 -12 34
-12 18 0 20 31 3 48 -16 16 -90 15 -111 0z"/>
<path d="M1050 945 c0 -43 4 -75 10 -75 6 0 10 9 10 19 0 31 16 33 34 6 25
-38 41 -30 17 8 l-20 33 22 22 c29 30 2 30 -30 0 l-23 -21 0 41 c0 23 -4 42
-10 42 -6 0 -10 -32 -10 -75z"/>
<path d="M1350 945 l0 -75 33 0 c41 0 57 15 57 56 0 37 -21 59 -50 51 -16 -4
-20 0 -20 19 0 13 -4 24 -10 24 -6 0 -10 -32 -10 -75z m68 -19 c3 -26 -10 -45
-31 -46 -14 0 -25 44 -15 63 14 27 42 17 46 -17z"/>
<path d="M1760 945 c0 -80 17 -104 22 -32 2 34 7 42 23 42 16 0 21 -8 23 -42
4 -56 22 -55 22 1 0 48 -18 71 -50 63 -16 -4 -20 0 -20 19 0 13 -4 24 -10 24
-6 0 -10 -32 -10 -75z"/>
<path d="M1890 1010 c0 -5 5 -10 10 -10 6 0 10 5 10 10 0 6 -4 10 -10 10 -5 0
-10 -4 -10 -10z"/>
<path d="M2250 1010 c0 -5 5 -10 10 -10 6 0 10 5 10 10 0 6 -4 10 -10 10 -5 0
-10 -4 -10 -10z"/>
<path d="M2310 1010 c0 -5 5 -10 10 -10 6 0 10 5 10 10 0 6 -4 10 -10 10 -5 0
-10 -4 -10 -10z"/>
<path d="M3370 1010 c0 -5 5 -10 10 -10 6 0 10 5 10 10 0 6 -4 10 -10 10 -5 0
-10 -4 -10 -10z"/>
<path d="M741 921 c1 -59 4 -59 14 2 4 28 11 37 25 37 17 0 20 -7 20 -45 0
-57 18 -59 22 -2 2 34 7 42 23 42 16 0 21 -9 26 -45 7 -44 7 -44 5 10 l-1 55
-67 1 -68 1 1 -56z"/>
<path d="M931 966 c-7 -9 -8 -16 -2 -20 5 -4 12 -2 16 4 3 5 15 10 26 10 31 0
17 -24 -17 -30 -23 -4 -29 -10 -29 -30 0 -23 4 -25 45 -28 l46 -3 -6 53 c-5
51 -6 53 -36 56 -18 2 -36 -3 -43 -12z m59 -61 c0 -21 -28 -31 -43 -16 -9 9
-8 14 3 21 22 14 40 12 40 -5z"/>
<path d="M1181 966 c-7 -8 -11 -32 -9 -53 3 -35 6 -38 37 -41 18 -2 38 1 44 7
16 16 0 26 -18 11 -18 -15 -45 -6 -45 15 0 11 11 15 40 15 44 0 47 5 24 38
-17 25 -56 29 -73 8z m59 -22 c0 -8 -10 -14 -25 -14 -27 0 -32 9 -14 27 14 14
39 6 39 -13z"/>
<path d="M1470 973 c0 -5 9 -31 19 -59 18 -47 19 -52 3 -67 -8 -9 -13 -20 -9
-24 13 -12 35 20 61 90 27 72 17 95 -11 25 l-17 -42 -14 42 c-7 23 -18 42 -23
42 -5 0 -9 -3 -9 -7z"/>
<path d="M1652 968 c-13 -13 -16 -56 -6 -82 8 -22 70 -22 78 0 9 25 -2 30 -18
9 -21 -29 -48 -12 -44 27 3 35 33 52 49 27 4 -7 11 -10 15 -6 11 11 -17 37
-40 37 -12 0 -27 -5 -34 -12z"/>
<path d="M1890 925 c0 -30 5 -55 10 -55 6 0 10 25 10 55 0 30 -4 55 -10 55 -5
0 -10 -25 -10 -55z"/>
<path d="M1950 923 c0 -63 18 -71 22 -10 2 34 7 42 23 42 16 0 21 -8 23 -42 4
-56 22 -55 22 1 0 51 -14 66 -58 63 -32 -2 -32 -3 -32 -54z"/>
<path d="M2087 973 c-4 -3 -7 -12 -7 -20 0 -10 4 -11 19 -2 10 7 26 9 37 5 17
-7 17 -9 -6 -18 -47 -19 -55 -25 -55 -44 0 -16 8 -19 48 -20 l47 -2 0 42 c0
23 -5 47 -12 54 -13 13 -60 16 -71 5z m61 -65 c-8 -22 -36 -34 -50 -20 -10 10
-10 15 2 22 21 14 52 12 48 -2z"/>
<path d="M2250 911 c0 -46 -4 -71 -12 -74 -7 -2 -10 -8 -6 -12 4 -4 14 -5 23
-2 12 5 15 23 15 82 0 43 -4 75 -10 75 -6 0 -10 -30 -10 -69z"/>
<path d="M2310 925 c0 -30 5 -55 10 -55 6 0 10 25 10 55 0 30 -4 55 -10 55 -5
0 -10 -25 -10 -55z"/>
<path d="M2381 966 c-8 -10 -9 -16 -1 -21 5 -3 10 -1 10 4 0 6 12 11 26 11 35
0 26 -24 -12 -30 -23 -4 -30 -11 -32 -33 -3 -26 -2 -27 43 -27 l46 0 -3 53
c-3 50 -4 52 -34 55 -18 2 -36 -3 -43 -12z m59 -60 c0 -13 -20 -26 -41 -26
-14 0 -11 28 4 33 23 10 37 7 37 -7z"/>
<path d="M2503 954 c-15 -24 -15 -29 -2 -53 11 -18 23 -26 42 -26 20 1 27 -4
25 -15 -4 -17 -48 -27 -48 -11 0 6 -4 11 -10 11 -5 0 -10 -7 -10 -15 0 -20 43
-29 69 -15 18 9 21 20 21 79 l0 68 -35 1 c-27 1 -39 -4 -52 -24z m65 -22 c2
-13 -2 -29 -8 -37 -23 -28 -57 8 -44 47 8 27 48 20 52 -10z"/>
<path d="M2630 924 c0 -64 17 -73 22 -11 2 34 7 42 23 42 16 0 21 -9 26 -45 5
-36 6 -38 7 -13 3 46 12 63 33 63 16 0 19 -8 19 -45 0 -25 5 -45 11 -45 6 0 9
21 7 53 l-3 52 -72 1 -73 1 0 -53z"/>
<path d="M2827 962 c-35 -39 -13 -92 38 -92 18 0 37 5 40 11 11 17 -2 21 -23
8 -17 -10 -23 -10 -36 0 -26 22 -19 31 24 31 32 0 40 4 40 18 0 41 -54 57 -83
24z m63 -23 c0 -5 -11 -9 -25 -9 -26 0 -35 25 -12 33 13 5 37 -10 37 -24z"/>
<path d="M2950 923 c0 -63 17 -72 22 -10 2 34 7 42 23 42 16 0 21 -8 23 -42 4
-56 22 -55 22 1 0 51 -13 65 -58 64 -32 -1 -32 -1 -32 -55z"/>
<path d="M3124 966 c-10 -26 3 -44 35 -51 17 -4 31 -11 31 -16 0 -16 -29 -22
-45 -9 -18 15 -34 5 -18 -11 6 -6 26 -9 44 -7 29 2 34 7 34 28 0 19 -7 26 -32
34 -42 11 -43 31 -2 22 22 -4 29 -2 27 7 -7 19 -67 21 -74 3z"/>
<path d="M3252 967 c-16 -19 -3 -30 14 -12 16 16 47 9 41 -9 -2 -6 -17 -13
-33 -16 -23 -4 -30 -11 -32 -33 -3 -26 -2 -27 45 -27 l49 0 -6 53 c-5 50 -6
52 -36 55 -17 2 -36 -3 -42 -11z m58 -61 c0 -13 -20 -26 -41 -26 -14 0 -11 28
4 33 23 10 37 7 37 -7z"/>
<path d="M3370 925 c0 -30 5 -55 10 -55 6 0 10 25 10 55 0 30 -4 55 -10 55 -5
0 -10 -25 -10 -55z"/>
</g>
</svg>
