<?xml version="1.0" standalone="no"?>
<!DOCTYPE svg PUBLIC "-//W3C//DTD SVG 20010904//EN"
 "http://www.w3.org/TR/2001/REC-SVG-20010904/DTD/svg10.dtd">
<svg version="1.0" xmlns="http://www.w3.org/2000/svg"
 width="400.000000pt" height="400.000000pt" viewBox="0 0 400.000000 400.000000"
 preserveAspectRatio="xMidYMid meet">

<g transform="translate(0.000000,400.000000) scale(0.100000,-0.100000)"
fill="#000000" stroke="none">
<path d="M1865 2229 c-784 -36 -1464 -144 -1583 -254 -30 -27 -33 -34 -24 -52
38 -71 317 -122 777 -143 258 -12 611 -12 675 -1 l45 8 -55 2 c-96 2 -271 21
-387 41 -67 12 -158 20 -225 20 l-113 1 -60 50 c-62 51 -68 53 -130 29 -14 -5
-33 -25 -42 -45 l-17 -35 -69 0 c-38 0 -67 4 -65 9 2 5 28 61 58 124 l55 116
73 1 73 0 -16 -31 c-9 -17 -14 -33 -12 -36 3 -2 52 14 109 36 98 39 110 41
208 41 62 0 100 -4 94 -9 -5 -5 -61 -28 -124 -51 -63 -23 -121 -45 -128 -49
-9 -5 0 -18 32 -45 39 -32 46 -34 46 -18 0 102 528 216 1240 267 393 28 401
32 60 32 -173 0 -396 -4 -495 -8z"/>
<path d="M665 1980 l-55 -110 54 0 c51 0 55 2 74 34 14 24 33 38 67 50 l48 16
61 -50 c59 -48 63 -50 125 -50 l64 0 -81 62 c-44 34 -79 65 -77 68 3 4 52 25
111 46 l107 39 -69 3 c-62 2 -81 -2 -183 -42 -63 -25 -117 -44 -119 -42 -2 2
6 22 18 45 l20 41 -55 0 -55 0 -55 -110z"/>
<path d="M3212 1985 c-28 -58 -52 -107 -52 -110 0 -3 22 -5 49 -5 40 0 51 4
64 24 9 13 30 28 46 34 29 10 33 8 57 -24 24 -31 31 -34 76 -34 56 0 56 -6 0
68 l-22 30 72 29 73 28 -62 3 c-47 2 -75 -3 -124 -23 -34 -14 -64 -23 -66 -21
-3 2 7 27 21 55 l26 51 -53 0 -52 0 -53 -105z"/>
<path d="M3630 2070 c-10 -19 -8 -20 44 -20 50 0 66 9 66 36 0 2 -22 4 -50 4
-39 0 -52 -4 -60 -20z"/>
<path d="M1210 2019 c-19 -6 -42 -17 -50 -26 -13 -13 -8 -14 45 -9 33 3 78 8
100 11 38 5 77 -7 63 -20 -3 -3 -53 -10 -110 -14 -115 -9 -148 -21 -148 -52 0
-32 62 -53 135 -44 33 3 88 6 123 5 50 -1 62 2 62 14 0 9 10 36 22 61 21 43
21 46 5 62 -13 14 -38 18 -115 20 -53 1 -113 -2 -132 -8z m130 -94 c-26 -32
-137 -42 -127 -11 4 13 46 23 101 25 33 1 37 -1 26 -14z"/>
<path d="M1510 2019 c0 -7 9 -43 20 -80 l21 -69 52 0 c48 0 57 4 104 45 28 25
53 45 56 45 3 0 8 -20 11 -45 l7 -45 54 0 c52 0 55 2 144 78 l91 77 -51 3
c-49 3 -53 1 -106 -49 -30 -28 -57 -48 -60 -45 -4 4 -9 25 -12 49 -6 42 -6 42
-51 45 -43 3 -49 0 -107 -53 l-61 -55 -13 55 -12 55 -44 0 c-25 0 -43 -5 -43
-11z"/>
<path d="M2130 2018 c-19 -5 -42 -16 -50 -24 -12 -12 -7 -14 42 -14 31 0 60 5
63 10 8 12 75 13 94 1 23 -15 -6 -23 -108 -31 -105 -7 -141 -20 -141 -51 0
-32 62 -53 135 -44 33 3 88 6 123 5 51 -1 62 2 62 15 0 9 9 33 20 55 11 22 20
44 20 50 0 34 -173 53 -260 28z m128 -90 c-6 -18 -75 -39 -104 -32 -53 13 -6
40 74 43 23 1 32 -3 30 -11z"/>
<path d="M2495 2017 c-29 -9 -41 -19 -43 -35 -4 -27 14 -35 116 -52 39 -6 72
-16 72 -20 0 -19 -74 -23 -124 -7 -37 12 -62 14 -91 8 l-40 -8 40 -19 c56 -26
245 -27 293 -1 61 33 39 60 -63 77 -114 18 -121 20 -104 31 19 12 81 11 115
-2 16 -5 46 -7 67 -3 36 6 38 7 23 22 -21 21 -202 27 -261 9z"/>
<path d="M2875 2015 c-22 -8 -41 -15 -42 -15 -2 0 -3 -5 -3 -11 0 -11 48 -9
148 7 40 6 75 -6 60 -21 -3 -3 -54 -10 -113 -15 -85 -6 -112 -12 -127 -27 -11
-12 -16 -26 -12 -36 9 -24 80 -40 139 -32 28 4 81 6 119 5 43 -1 66 2 62 9 -4
5 4 30 16 56 25 51 19 75 -23 86 -44 13 -183 9 -224 -6z m131 -94 c-21 -23
-72 -32 -105 -19 -43 16 -3 34 83 37 38 1 39 0 22 -18z"/>
<path d="M3575 1954 c-19 -42 -35 -78 -35 -80 0 -2 22 -4 50 -4 l50 0 35 70
c19 38 35 74 35 80 0 5 -23 10 -50 10 l-51 0 -34 -76z"/>
<path d="M1933 1823 c32 -5 32 -6 11 -38 -16 -24 -15 -25 7 -25 16 0 30 10 41
30 13 23 24 30 49 30 21 0 29 -4 26 -12 -22 -53 -28 -50 84 -45 57 3 119 8
137 12 21 5 42 3 57 -5 34 -18 44 -9 28 28 -17 42 -52 43 -113 2 -37 -25 -55
-30 -102 -30 -32 0 -58 4 -58 10 0 6 26 11 58 12 56 2 56 2 10 5 -66 6 -60 21
10 25 31 2 -17 4 -108 4 -91 1 -153 -1 -137 -3z m402 -23 c3 -5 -3 -10 -15
-10 -12 0 -18 5 -15 10 3 6 10 10 15 10 5 0 12 -4 15 -10z"/>
<path d="M2434 1818 c-4 -7 -14 -23 -22 -35 -13 -21 -13 -23 7 -23 13 0 26 10
34 26 l12 27 5 -24 c8 -32 33 -35 69 -10 37 27 49 27 25 0 -19 -21 -19 -21 6
-18 14 3 31 17 43 37 l19 32 -32 0 c-18 0 -43 -9 -57 -20 -14 -11 -30 -20 -34
-20 -5 0 -9 9 -9 20 0 15 -7 20 -29 20 -17 0 -33 -6 -37 -12z"/>
<path d="M2701 1795 l-20 -35 23 0 c13 0 26 7 30 15 7 20 50 19 67 -1 13 -16
18 -16 152 2 31 4 47 2 47 -5 0 -6 9 -11 20 -11 23 0 23 -2 9 39 -14 41 -49
41 -113 1 -33 -21 -54 -29 -69 -24 -20 6 -19 7 6 21 42 22 23 33 -58 33 -73 0
-73 0 -94 -35z m124 15 c-3 -5 -22 -10 -41 -10 -21 0 -33 4 -29 10 3 6 22 10
41 10 21 0 33 -4 29 -10z m165 -10 c0 -5 -10 -10 -22 -10 -19 0 -20 2 -8 10
19 13 30 13 30 0z"/>
<path d="M3089 1810 c-24 -20 -24 -20 -5 -35 30 -23 146 -17 146 7 0 6 -10 8
-22 4 -51 -14 -74 -16 -88 -6 -13 9 -12 12 5 26 15 12 33 14 75 9 39 -4 51 -3
40 4 -8 6 -40 11 -71 11 -42 0 -63 -5 -80 -20z"/>
<path d="M3261 1798 c-20 -32 -15 -45 14 -34 8 3 21 19 30 35 15 29 15 31 -4
31 -11 0 -28 -14 -40 -32z"/>
<path d="M3330 1798 c-18 -30 -18 -33 -3 -37 9 -2 24 7 34 20 l18 24 23 -23
c33 -30 60 -28 81 7 22 37 21 41 -2 41 -11 0 -23 -9 -26 -20 -3 -11 -10 -20
-14 -20 -4 0 -16 9 -26 20 -28 31 -62 26 -85 -12z"/>
<path d="M3533 1818 c-13 -6 -23 -19 -23 -28 0 -39 159 -42 174 -4 4 11 -5 14
-42 13 -26 -1 -37 -4 -24 -6 33 -6 16 -23 -23 -23 -41 0 -55 18 -29 37 14 11
35 13 79 8 42 -4 56 -3 45 5 -20 13 -129 12 -157 -2z"/>
</g>
</svg>
