<?xml version="1.0" standalone="no"?>
<!DOCTYPE svg PUBLIC "-//W3C//DTD SVG 20010904//EN"
 "http://www.w3.org/TR/2001/REC-SVG-20010904/DTD/svg10.dtd">
<svg version="1.0" xmlns="http://www.w3.org/2000/svg"
 width="512.000000pt" height="512.000000pt" viewBox="0 0 512.000000 512.000000"
 preserveAspectRatio="xMidYMid meet">

<g transform="translate(0.000000,512.000000) scale(0.100000,-0.100000)"
fill="#000000" stroke="none">
<path d="M930 3079 c-94 -13 -217 -76 -288 -148 -97 -97 -153 -230 -153 -363
-1 -153 47 -266 158 -376 41 -41 80 -72 87 -69 6 3 23 -1 37 -9 13 -7 29 -13
34 -14 6 0 -15 14 -45 32 -58 33 -160 130 -160 152 0 12 383 176 410 176 22 0
410 -163 410 -172 0 -5 5 -6 10 -3 6 3 10 10 10 14 0 8 -401 241 -414 241 -3
0 -6 -8 -6 -17 -1 -17 -2 -17 -14 0 -13 17 -28 11 -225 -102 -116 -67 -212
-121 -215 -121 -2 0 -4 10 -4 23 0 12 -10 49 -23 82 -19 48 -23 79 -23 160 0
86 4 110 28 170 69 170 189 272 368 312 40 8 78 20 84 24 6 5 14 6 17 2 4 -3
7 -116 7 -250 0 -133 3 -243 8 -243 4 1 18 7 32 15 22 12 28 11 45 -3 19 -17
20 -16 3 3 -12 14 -26 83 -47 239 -17 121 -29 221 -27 223 8 8 118 -17 163
-37 25 -11 50 -17 57 -13 6 3 8 3 4 -2 -8 -8 61 -62 73 -58 4 1 21 -13 38 -32
17 -19 29 -35 26 -35 -3 0 5 -15 19 -33 39 -51 74 -135 85 -205 10 -62 41
-130 41 -87 -1 11 -7 55 -14 97 -50 275 -314 465 -596 427z"/>
<path d="M714 3044 c-18 -14 -18 -15 4 -4 12 6 22 13 22 15 0 8 -5 6 -26 -11z"/>
<path d="M669 3013 c-13 -16 -12 -17 4 -4 9 7 17 15 17 17 0 8 -8 3 -21 -13z"/>
<path d="M599 2953 l-34 -38 38 34 c34 33 42 41 34 41 -2 0 -19 -17 -38 -37z"/>
<path d="M1446 2904 c69 -96 109 -249 100 -379 -23 -350 -366 -581 -706 -476
-33 10 -57 15 -54 10 8 -13 -3 -11 -36 6 -17 9 -30 13 -30 10 0 -9 88 -46 145
-61 65 -18 226 -18 291 0 128 34 268 141 337 257 55 94 78 177 78 284 0 147
-32 246 -116 355 -62 81 -68 76 -9 -6z"/>
<path d="M549 2893 c-13 -16 -12 -17 4 -4 9 7 17 15 17 17 0 8 -8 3 -21 -13z"/>
<path d="M520 2850 c-6 -11 -8 -20 -6 -20 3 0 10 9 16 20 6 11 8 20 6 20 -3 0
-10 -9 -16 -20z"/>
<path d="M961 2854 c0 -11 3 -14 6 -6 3 7 2 16 -1 19 -3 4 -6 -2 -5 -13z"/>
<path d="M952 2780 c0 -14 2 -19 5 -12 2 6 2 18 0 25 -3 6 -5 1 -5 -13z"/>
<path d="M942 2710 c0 -14 2 -19 5 -12 2 6 2 18 0 25 -3 6 -5 1 -5 -13z"/>
<path d="M931 2638 c-1 -21 -19 -41 -86 -93 -47 -36 -85 -68 -85 -71 0 -6 157
115 171 132 6 7 9 23 6 36 -4 21 -4 21 -6 -4z"/>
<path d="M1870 2640 c0 -4 9 -10 20 -13 18 -5 20 -13 20 -99 0 -140 -9 -200
-32 -206 -34 -9 -18 -18 32 -18 52 0 66 9 28 19 -20 6 -21 9 -15 104 4 54 7
116 7 138 1 35 8 20 55 -103 29 -79 56 -146 58 -148 2 -3 28 61 57 141 29 80
55 145 57 145 1 0 3 -61 3 -136 0 -127 -1 -136 -20 -141 -39 -10 -19 -18 45
-18 36 0 65 3 65 7 0 5 -8 8 -19 8 -22 0 -31 55 -31 203 0 91 2 99 20 104 34
9 22 20 -24 20 l-44 1 -42 -111 c-23 -61 -44 -117 -48 -124 -5 -8 -26 35 -53
109 l-45 123 -47 1 c-26 1 -47 -2 -47 -6z"/>
<path d="M3286 2643 c-28 -4 -28 -5 -7 -19 16 -12 21 -26 21 -60 0 -45 0 -45
-22 -30 -97 68 -183 -107 -101 -205 27 -32 82 -40 105 -15 11 11 15 11 23 0 7
-9 20 -11 45 -5 31 6 32 8 13 13 -23 6 -23 9 -23 167 0 123 -3 161 -12 160 -7
-1 -26 -4 -42 -6z m-8 -130 c33 -63 25 -164 -15 -190 -25 -17 -26 -16 -49 11
-20 22 -24 38 -24 89 0 72 18 107 55 107 13 0 28 -8 33 -17z"/>
<path d="M3950 2641 c0 -5 9 -11 20 -14 19 -5 20 -14 20 -152 0 -138 -1 -147
-20 -152 -42 -11 -17 -23 48 -23 87 0 136 14 162 47 29 37 26 79 -9 113 -28
28 -28 30 -10 46 22 20 26 81 6 108 -7 9 -30 21 -52 26 -51 12 -165 13 -165 1z
m160 -21 c24 -13 35 -63 19 -92 -16 -31 -28 -38 -66 -38 l-33 0 0 70 0 70 31
0 c17 0 39 -4 49 -10z m24 -166 c9 -9 16 -32 16 -55 0 -53 -28 -81 -78 -77
l-37 3 -3 73 -3 72 45 0 c27 0 51 -6 60 -16z"/>
<path d="M448 2539 c4 -86 44 -231 72 -259 11 -11 17 -20 13 -20 -5 0 -1 -5 7
-10 8 -5 15 -14 15 -20 0 -5 5 -10 10 -10 6 -1 25 -15 44 -33 25 -24 21 -16
-19 38 -29 38 -61 90 -72 115 -26 59 -48 162 -48 225 0 32 -3 45 -9 36 -6 -10
-10 -10 -13 -1 -2 7 -2 -21 0 -61z"/>
<path d="M2856 2551 c-3 -5 -24 -7 -47 -4 -24 4 -50 1 -64 -7 -46 -25 -69
-112 -46 -173 26 -69 111 -91 150 -41 21 27 28 54 14 54 -5 0 -16 -14 -25 -30
-12 -21 -25 -30 -42 -30 -38 0 -56 35 -56 107 0 51 4 67 24 90 21 24 26 26 50
15 14 -6 28 -23 32 -37 10 -40 24 -29 24 20 0 45 -4 53 -14 36z"/>
<path d="M2305 2524 c-27 -29 -41 -95 -30 -142 16 -73 101 -107 157 -62 30 23
43 60 22 60 -8 0 -14 -6 -14 -13 0 -22 -34 -47 -63 -47 -30 0 -51 27 -62 78
l-7 32 80 0 79 0 -7 42 c-10 53 -39 78 -92 78 -29 0 -45 -6 -63 -26z m95 -4
c11 -11 20 -31 20 -45 0 -23 -3 -25 -50 -25 -47 0 -50 2 -50 25 0 25 31 65 50
65 6 0 19 -9 30 -20z"/>
<path d="M2510 2540 c-13 -8 -12 -10 3 -10 15 0 17 -12 17 -103 0 -95 -2 -105
-21 -113 -15 -7 -5 -9 41 -9 58 0 59 0 39 16 -20 15 -21 23 -17 97 5 80 17
112 44 112 8 0 14 -9 14 -20 0 -13 7 -20 20 -20 14 0 20 7 20 24 0 36 -55 50
-83 21 -13 -13 -16 -13 -21 0 -6 17 -34 19 -56 5z"/>
<path d="M2957 2539 c-63 -37 -62 -194 2 -229 36 -19 90 -12 116 15 24 23 34
55 18 55 -5 0 -16 -14 -25 -30 -13 -22 -24 -30 -45 -30 -36 0 -49 9 -62 43
-24 62 -19 67 64 67 74 0 75 0 75 25 0 33 -25 81 -45 89 -25 9 -78 7 -98 -5z
m69 -7 c15 -10 34 -47 34 -66 0 -13 -12 -16 -56 -16 l-56 0 6 28 c4 15 16 35
28 45 22 19 28 20 44 9z"/>
<path d="M3430 2521 c-27 -27 -30 -35 -30 -96 0 -60 3 -69 29 -96 29 -29 76
-38 116 -23 14 6 45 53 45 69 0 16 -22 1 -35 -25 -13 -24 -22 -30 -49 -30 -41
0 -56 17 -63 70 l-6 40 78 0 78 0 -7 33 c-11 54 -38 82 -85 85 -35 3 -46 -2
-71 -27z m92 2 c8 -10 18 -30 22 -45 6 -28 6 -28 -49 -28 -47 0 -55 3 -55 19
0 23 37 71 54 71 7 0 20 -8 28 -17z"/>
<path d="M3663 2535 c-16 -11 -23 -26 -23 -49 0 -37 13 -51 74 -81 43 -21 56
-46 36 -70 -26 -31 -100 -6 -100 33 0 7 -4 12 -10 12 -5 0 -10 -18 -10 -40 0
-22 5 -40 10 -40 6 0 10 5 10 10 0 7 6 7 19 0 34 -18 80 -12 106 15 44 43 29
83 -46 120 -60 31 -71 51 -41 76 28 22 59 14 77 -20 l14 -26 1 35 c0 35 0 35
-48 38 -31 2 -55 -3 -69 -13z"/>
<path d="M4287 2539 c-63 -37 -62 -194 2 -229 36 -19 90 -12 116 15 24 23 34
55 18 55 -5 0 -16 -14 -25 -30 -33 -58 -103 -32 -115 44 l-6 36 77 0 c75 0 76
0 76 25 0 33 -25 81 -45 89 -25 9 -78 7 -98 -5z m76 -11 c9 -7 20 -28 23 -45
l7 -33 -58 0 c-48 0 -56 3 -51 16 3 9 6 20 6 25 0 11 37 49 48 49 5 0 16 -6
25 -12z"/>
<path d="M4475 2540 c-16 -7 -16 -9 -4 -9 24 -1 29 -22 29 -111 0 -66 -3 -82
-20 -97 -19 -18 -18 -19 36 -19 44 0 52 3 40 12 -12 9 -16 31 -16 97 0 81 2
88 24 102 50 33 76 -8 76 -121 0 -40 -5 -58 -20 -72 -19 -18 -18 -18 35 -18
41 1 52 4 41 11 -10 8 -15 39 -17 104 -4 83 -6 95 -28 112 -28 23 -69 24 -99
3 -20 -14 -22 -14 -22 0 0 17 -23 20 -55 6z"/>
<path d="M4746 2534 c-3 -9 -6 -25 -6 -37 1 -21 2 -20 21 6 16 21 29 27 60 27
21 0 39 -3 39 -7 0 -5 -29 -55 -65 -113 l-64 -105 86 -3 c47 -2 87 -2 88 0 2
2 6 21 10 43 5 34 4 38 -7 23 -7 -9 -17 -24 -23 -33 -7 -12 -21 -16 -52 -13
l-42 3 65 105 c35 57 64 108 64 112 0 4 -38 8 -84 8 -67 0 -85 -3 -90 -16z"/>
<path d="M1502 2500 c0 -14 2 -19 5 -12 2 6 2 18 0 25 -3 6 -5 1 -5 -13z"/>
<path d="M729 2453 c-13 -16 -12 -17 4 -4 9 7 17 15 17 17 0 8 -8 3 -21 -13z"/>
<path d="M3830 2440 c0 -5 25 -10 55 -10 30 0 55 5 55 10 0 6 -25 10 -55 10
-30 0 -55 -4 -55 -10z"/>
<path d="M689 2423 c-13 -16 -12 -17 4 -4 9 7 17 15 17 17 0 8 -8 3 -21 -13z"/>
<path d="M1399 2253 c-13 -16 -12 -17 4 -4 9 7 17 15 17 17 0 8 -8 3 -21 -13z"/>
<path d="M580 2187 c0 -2 15 -16 33 -33 l32 -29 -29 33 c-28 30 -36 37 -36 29z"/>
<path d="M1309 2163 c-13 -16 -12 -17 4 -4 9 7 17 15 17 17 0 8 -8 3 -21 -13z"/>
<path d="M664 2111 c7 -11 46 -35 46 -28 0 3 -12 12 -26 22 -15 9 -23 12 -20
6z"/>
<path d="M1058 2063 c6 -2 18 -2 25 0 6 3 1 5 -13 5 -14 0 -19 -2 -12 -5z"/>
</g>
</svg>
