<?xml version="1.0" standalone="no"?>
<!DOCTYPE svg PUBLIC "-//W3C//DTD SVG 20010904//EN"
 "http://www.w3.org/TR/2001/REC-SVG-20010904/DTD/svg10.dtd">
<svg version="1.0" xmlns="http://www.w3.org/2000/svg"
 width="400.000000pt" height="400.000000pt" viewBox="0 0 400.000000 400.000000"
 preserveAspectRatio="xMidYMid meet">

<g transform="translate(0.000000,400.000000) scale(0.100000,-0.100000)"
fill="#000000" stroke="none">
<path d="M437 2313 c-3 -5 -44 -141 -91 -303 -48 -162 -89 -303 -92 -312 -4
-15 1 -18 30 -18 24 0 36 5 40 18 3 9 41 144 85 299 44 155 82 292 86 303 5
17 2 20 -24 20 -16 0 -32 -3 -34 -7z"/>
<path d="M566 2303 c-3 -10 -42 -148 -86 -307 -45 -159 -84 -295 -87 -303 -4
-9 4 -13 25 -13 17 0 33 4 36 8 3 5 44 141 91 303 47 162 88 302 91 312 4 14
-1 17 -30 17 -24 0 -36 -5 -40 -17z"/>
<path d="M622 2008 c-51 -172 -92 -316 -92 -320 0 -5 16 -8 35 -8 34 0 34 1
54 68 43 146 161 561 161 567 0 3 -15 5 -33 5 l-34 0 -91 -312z"/>
<path d="M855 2308 c-20 -61 -175 -601 -175 -613 0 -11 11 -15 38 -15 l38 0
87 308 c48 169 87 313 87 320 0 7 -14 12 -35 12 -20 0 -38 -6 -40 -12z"/>
<path d="M1005 2308 c-11 -36 -175 -618 -175 -623 0 -4 19 -5 41 -3 l42 3 88
300 c48 165 88 308 89 318 0 13 -8 17 -40 17 -24 0 -42 -5 -45 -12z"/>
<path d="M1146 2238 c-77 -256 -156 -533 -156 -545 0 -11 12 -13 47 -11 l46 3
88 310 c49 171 88 313 89 318 0 4 -20 7 -45 7 l-44 0 -25 -82z"/>
<path d="M1316 2238 c-76 -252 -156 -533 -156 -544 0 -12 194 -14 1202 -12
l1203 3 87 295 c48 162 89 305 93 318 l5 22 -1204 0 -1205 0 -25 -82z m257 -5
c4 -21 9 -75 13 -120 4 -46 10 -83 13 -83 3 0 21 54 40 120 l33 120 54 0 c30
0 54 -4 54 -8 0 -5 -25 -93 -55 -197 -30 -104 -53 -190 -52 -191 1 -2 49 87
107 196 l105 199 74 1 74 0 -7 -142 c-3 -79 -8 -186 -11 -238 -4 -90 -4 -93 8
-50 13 45 13 45 61 48 l48 3 -6 -36 -7 -36 62 3 63 3 13 50 c7 28 13 53 13 58
0 4 -28 7 -63 7 -68 0 -81 8 -122 73 -16 26 -16 31 -1 95 14 55 25 75 64 115
l46 47 107 0 108 0 21 -30 c17 -24 20 -38 15 -70 l-7 -40 -55 0 c-54 0 -55 1
-49 25 6 25 5 25 -53 25 l-60 0 -16 -52 c-8 -28 -15 -53 -15 -55 0 -2 33 -3
73 -3 l72 0 28 -40 28 -40 -26 -97 c-20 -75 -34 -106 -58 -130 l-31 -33 -112
0 c-111 0 -113 0 -133 28 l-20 27 -1 -27 c0 -27 -1 -28 -60 -28 l-60 0 0 55 0
55 -48 0 -48 0 -27 -55 -27 -55 -119 0 c-137 0 -125 -9 -136 105 -3 39 -9 86
-12 105 -6 32 -8 29 -30 -50 -50 -182 -36 -160 -98 -160 -40 0 -55 4 -55 14 0
12 64 239 126 444 l25 82 63 0 63 0 6 -37z m1210 -2 c26 -39 26 -40 11 -85
l-16 -46 -54 0 c-53 0 -53 0 -44 26 19 49 14 55 -42 52 l-51 -3 -49 -170 c-26
-93 -48 -173 -48 -177 0 -5 24 -8 54 -8 l54 0 18 75 18 75 53 0 c29 0 53 -3
53 -6 0 -3 -10 -39 -22 -80 -19 -66 -27 -80 -69 -114 l-47 -40 -95 0 -96 0
-22 31 -22 32 58 205 c54 189 61 207 94 238 36 33 37 33 137 34 l101 0 26 -39z
m313 -123 c-4 -90 -8 -190 -11 -223 -5 -78 -2 -69 65 175 l57 205 139 3 140 3
28 -30 28 -29 -22 -79 c-18 -61 -30 -85 -57 -109 -35 -31 -35 -31 -19 -62 16
-30 15 -37 -10 -132 l-27 -100 -54 0 c-36 0 -53 4 -53 13 0 6 11 48 25 92 14
44 25 86 25 93 0 8 -19 12 -60 12 l-59 0 -26 -87 c-15 -49 -29 -96 -31 -105
-5 -16 -19 -18 -110 -18 l-104 0 0 55 0 55 -48 0 -48 0 -27 -55 -27 -55 -60 0
c-33 0 -60 2 -60 4 0 3 48 110 106 238 59 128 113 248 120 266 l14 32 86 0 86
0 -6 -162z m409 -299 c-17 -8 -16 -9 8 -5 38 5 55 -25 32 -60 -18 -28 -46 -31
-69 -8 -30 29 -8 85 32 83 14 0 13 -2 -3 -10z"/>
<path d="M1876 2001 l-26 -51 24 0 c22 0 26 6 32 45 3 25 4 48 1 51 -3 3 -17
-17 -31 -45z"/>
<path d="M3279 2125 l-16 -55 67 0 67 0 15 55 15 55 -66 0 -66 0 -16 -55z"/>
<path d="M2953 2037 c-38 -88 -38 -87 -10 -87 23 0 27 5 32 43 4 24 5 55 3 69
-3 23 -6 20 -25 -25z"/>
<path d="M3476 1788 c-10 -22 -1 -47 19 -54 21 -8 32 3 17 18 -9 9 -12 9 -13
-2 -1 -8 -5 1 -9 20 -5 28 -8 31 -14 18z"/>
<path d="M3528 1782 c-3 -11 -2 -25 2 -32 5 -8 9 -5 12 8 3 11 2 25 -2 32 -5
8 -9 5 -12 -8z"/>
<path d="M3500 1780 c0 -5 5 -10 10 -10 6 0 10 5 10 10 0 6 -4 10 -10 10 -5 0
-10 -4 -10 -10z"/>
</g>
</svg>
