<?xml version="1.0" standalone="no"?>
<!DOCTYPE svg PUBLIC "-//W3C//DTD SVG 20010904//EN"
 "http://www.w3.org/TR/2001/REC-SVG-20010904/DTD/svg10.dtd">
<svg version="1.0" xmlns="http://www.w3.org/2000/svg"
 width="512.000000pt" height="512.000000pt" viewBox="0 0 512.000000 512.000000"
 preserveAspectRatio="xMidYMid meet">

<g transform="translate(0.000000,512.000000) scale(0.100000,-0.100000)"
fill="#000000" stroke="none">
<path d="M1210 2827 c0 -21 30 -57 73 -88 l40 -29 241 0 c231 0 243 1 281 23
36 20 85 77 85 98 0 5 -162 9 -360 9 -285 0 -360 -3 -360 -13z"/>
<path d="M4280 2831 c0 -21 49 -78 85 -98 38 -22 50 -23 273 -23 260 0 276 3
332 66 58 66 69 64 -330 64 -198 0 -360 -4 -360 -9z"/>
<path d="M120 2823 c0 -20 43 -69 77 -90 33 -20 51 -23 146 -23 l107 0 0 -215
0 -215 60 0 60 0 2 213 3 212 100 2 c55 2 110 5 122 8 30 7 81 51 99 86 l15
29 -396 0 c-217 0 -395 -3 -395 -7z"/>
<path d="M2290 2665 l0 -165 280 0 280 0 0 -44 0 -45 -228 -3 -229 -3 -36 -28
c-32 -24 -67 -73 -67 -92 0 -3 153 -5 340 -5 l340 0 0 170 0 170 -280 0 -280
0 0 45 0 45 214 0 c128 0 226 4 243 11 35 13 70 46 89 82 l15 27 -341 0 -340
0 0 -165z"/>
<path d="M3360 2555 l0 -275 274 0 274 0 43 33 c24 18 52 47 62 65 l19 32
-276 0 -276 0 0 210 0 210 -60 0 -60 0 0 -275z"/>
<path d="M1210 2615 c0 -21 36 -68 67 -90 l38 -25 252 0 c244 0 255 1 287 22
30 20 76 75 76 91 0 4 -162 7 -360 7 -198 0 -360 -2 -360 -5z"/>
<path d="M4300 2450 l0 -170 60 0 59 0 3 108 3 107 217 3 217 2 3 -107 3 -108
58 -3 57 -3 0 171 0 170 -340 0 -340 0 0 -170z"/>
<path d="M1210 2398 c0 -22 52 -78 90 -98 36 -18 59 -20 271 -20 229 0 233 0
275 25 36 21 84 77 84 99 0 3 -162 6 -360 6 -266 0 -360 -3 -360 -12z"/>
</g>
</svg>
